<svg xmlns="http://www.w3.org/2000/svg" viewBox="22.8 14 46.4 46.4" fill="none">
  <!-- Dsignzhub monogram: a "D" split by a bolt cut through its counter.
       Single source of truth — the favicon, the inline header/footer mark and
       the extruded 3D hero shape are all generated from this file. -->
  <defs>
    <linearGradient id="dz-grad" x1="46" y1="14" x2="46" y2="60.4609" gradientUnits="userSpaceOnUse">
      <stop stop-color="#8472FC"/>
      <stop offset="1" stop-color="#B575FD"/>
    </linearGradient>
  </defs>
  <path fill="url(#dz-grad)" d="M67.291 31.5273C67.7534 33.3527 68 35.2633 68 37.2305C68 50.0405 57.59 60.4609 44.79 60.4609H29C26.2387 60.4609 24.0002 58.2222 24 55.4609V51.9473L39.3594 36.3799V47.8955C39.3716 50.5371 41.5099 52.6865 44.1602 52.6865L44.4102 52.6797C45.6483 52.6153 46.7598 52.0772 47.5693 51.2588L47.5684 51.2578L67.291 31.5273ZM44.7803 14C52.0056 14.0001 58.4719 17.3214 62.7344 22.5176L48.96 36.293V24.6777C48.9572 24.0886 48.8443 23.5344 48.6592 23.0322H48.6602C48.6599 23.0315 48.6583 23.0293 48.6562 23.0234C48.6543 23.0178 48.6489 23.0004 48.6436 22.9854C48.6322 22.9536 48.6103 22.8957 48.582 22.8281L48.5791 22.8203L48.5195 22.6914H48.5205C48.4949 22.6351 48.4445 22.5255 48.3809 22.4072L48.3779 22.4023L48.3271 22.3115C48.3254 22.3086 48.3228 22.3046 48.3223 22.3037C48.3216 22.3026 48.3212 22.3025 48.3213 22.3027C48.3215 22.3032 48.3233 22.3065 48.3262 22.3115C48.1246 21.957 47.8698 21.6091 47.5508 21.29L47.5439 21.2832L47.3955 21.1426C47.3463 21.0983 47.2978 21.0562 47.25 21.0166L46.9775 20.8057C46.9763 20.8048 46.9744 20.8041 46.9727 20.8027C46.9674 20.7988 46.9545 20.7892 46.9424 20.7803C46.9171 20.7616 46.8721 20.7289 46.8174 20.6924L46.8125 20.6885L46.6816 20.6074C46.6764 20.6043 46.6705 20.6011 46.668 20.5996C46.6208 20.5702 46.5145 20.5038 46.3984 20.4424L46.3936 20.4395L46.3096 20.3975C46.2892 20.3877 46.2719 20.3802 46.2646 20.377C46.253 20.3717 46.2579 20.3742 46.2598 20.375C46.1856 20.3385 46.0895 20.2919 45.9805 20.2471L45.9775 20.2461L45.8496 20.1973C45.8445 20.1955 45.8394 20.1933 45.8369 20.1924C45.834 20.1914 45.8327 20.1916 45.832 20.1914C45.8331 20.1918 45.8374 20.1939 45.8438 20.1963C45.7787 20.1718 45.6598 20.1264 45.5234 20.0859L45.5225 20.085L45.4277 20.0596C45.423 20.0584 45.4183 20.0577 45.4141 20.0566C45.3206 20.0309 45.2034 20 45.0723 19.9746L45.0713 19.9756C45.0108 19.9639 44.9606 19.9553 44.9453 19.9531C44.9415 19.9526 44.9354 19.9523 44.9346 19.9521H44.9336C44.8572 19.9395 44.7441 19.9223 44.6172 19.9102C44.5012 19.899 44.3916 19.8954 44.333 19.8936H44.3408C44.3398 19.8935 44.3388 19.8927 44.3369 19.8926C44.3351 19.8925 44.3319 19.8928 44.3291 19.8926C44.3186 19.8919 44.2962 19.8908 44.2695 19.8896C44.2419 19.8884 44.2042 19.8867 44.1602 19.8867H44.1533C42.9298 19.8866 41.6989 20.3538 40.7627 21.29L40.7529 21.2998L24 38.2793V19.001C24 16.2396 26.2386 14 29 14H44.7803ZM43.6357 21.9346C43.641 21.9336 43.6462 21.9326 43.6514 21.9316L43.8848 21.8994C43.8014 21.9074 43.7183 21.9192 43.6357 21.9346Z"/>
</svg>
