<svg xmlns="http://www.w3.org/2000/svg" viewBox="0 0 560 380" width="560" height="380" role="img">
<defs>
  <linearGradient id="bg" x1="0" y1="0" x2="560" y2="380" gradientUnits="userSpaceOnUse">
    <stop offset="0" stop-color="#2d69fb" stop-opacity=".30"/><stop offset="1" stop-color="#05050a"/>
  </linearGradient>
  <clipPath id="clip"><rect x="26" y="60" width="508" height="294" rx="10"/></clipPath>
</defs>
<rect width="560" height="380" fill="#05050a"/>
<rect width="560" height="380" fill="url(#bg)"/>
<rect x="26" y="22" width="508" height="332" rx="14" fill="#121218" stroke="rgba(255,255,255,0.12)"/>
<circle cx="48" cy="42" r="4.5" fill="#ff5f57"/><circle cx="64" cy="42" r="4.5" fill="#febc2e"/><circle cx="80" cy="42" r="4.5" fill="#28c840"/>
<rect x="100" y="35" width="410" height="14" rx="7" fill="rgba(255,255,255,.07)"/>
<g clip-path="url(#clip)"><rect x="46" y="82" width="106" height="116" rx="10" fill="rgba(255,255,255,.05)" stroke="rgba(255,255,255,0.12)"/><rect x="56" y="92" width="86" height="62" rx="7" fill="#8f6cff" opacity="0.3"/><rect x="56" y="164" width="70" height="9" rx="4" fill="rgba(255,255,255,.20)"/><rect x="56" y="177" width="40" height="9" rx="4" fill="rgba(255,255,255,.20)"/><rect x="168" y="82" width="106" height="116" rx="10" fill="rgba(255,255,255,.05)" stroke="rgba(255,255,255,0.12)"/><rect x="178" y="92" width="86" height="62" rx="7" fill="#8f6cff" opacity="0.39"/><rect x="178" y="164" width="70" height="9" rx="4" fill="rgba(255,255,255,.20)"/><rect x="178" y="177" width="40" height="9" rx="4" fill="rgba(255,255,255,.20)"/><rect x="290" y="82" width="106" height="116" rx="10" fill="rgba(255,255,255,.05)" stroke="rgba(255,255,255,0.12)"/><rect x="300" y="92" width="86" height="62" rx="7" fill="#8f6cff" opacity="0.48"/><rect x="300" y="164" width="70" height="9" rx="4" fill="rgba(255,255,255,.20)"/><rect x="300" y="177" width="40" height="9" rx="4" fill="rgba(255,255,255,.20)"/><rect x="412" y="82" width="106" height="116" rx="10" fill="rgba(255,255,255,.05)" stroke="rgba(255,255,255,0.12)"/><rect x="422" y="92" width="86" height="62" rx="7" fill="#8f6cff" opacity="0.5700000000000001"/><rect x="422" y="164" width="70" height="9" rx="4" fill="rgba(255,255,255,.20)"/><rect x="422" y="177" width="40" height="9" rx="4" fill="rgba(255,255,255,.20)"/><rect x="46" y="214" width="106" height="116" rx="10" fill="rgba(255,255,255,.05)" stroke="rgba(255,255,255,0.12)"/><rect x="56" y="224" width="86" height="62" rx="7" fill="#8f6cff" opacity="0.39"/><rect x="56" y="296" width="70" height="9" rx="4" fill="rgba(255,255,255,.20)"/><rect x="56" y="309" width="40" height="9" rx="4" fill="rgba(255,255,255,.20)"/><rect x="168" y="214" width="106" height="116" rx="10" fill="rgba(255,255,255,.05)" stroke="rgba(255,255,255,0.12)"/><rect x="178" y="224" width="86" height="62" rx="7" fill="#8f6cff" opacity="0.48"/><rect x="178" y="296" width="70" height="9" rx="4" fill="rgba(255,255,255,.20)"/><rect x="178" y="309" width="40" height="9" rx="4" fill="rgba(255,255,255,.20)"/><rect x="290" y="214" width="106" height="116" rx="10" fill="rgba(255,255,255,.05)" stroke="rgba(255,255,255,0.12)"/><rect x="300" y="224" width="86" height="62" rx="7" fill="#8f6cff" opacity="0.5700000000000001"/><rect x="300" y="296" width="70" height="9" rx="4" fill="rgba(255,255,255,.20)"/><rect x="300" y="309" width="40" height="9" rx="4" fill="rgba(255,255,255,.20)"/><rect x="412" y="214" width="106" height="116" rx="10" fill="rgba(255,255,255,.05)" stroke="rgba(255,255,255,0.12)"/><rect x="422" y="224" width="86" height="62" rx="7" fill="#8f6cff" opacity="0.3"/><rect x="422" y="296" width="70" height="9" rx="4" fill="rgba(255,255,255,.20)"/><rect x="422" y="309" width="40" height="9" rx="4" fill="rgba(255,255,255,.20)"/></g>
</svg>
