<svg xmlns="http://www.w3.org/2000/svg" viewBox="0 0 560 380" width="560" height="380" role="img">
<defs>
  <linearGradient id="bg" x1="0" y1="0" x2="560" y2="380" gradientUnits="userSpaceOnUse">
    <stop offset="0" stop-color="#ffb020" stop-opacity=".30"/><stop offset="1" stop-color="#0b0b14"/>
  </linearGradient>
  <clipPath id="clip"><rect x="26" y="60" width="508" height="294" rx="10"/></clipPath>
</defs>
<rect width="560" height="380" fill="#0b0b14"/>
<rect width="560" height="380" fill="url(#bg)"/>
<rect x="26" y="22" width="508" height="332" rx="14" fill="#171728" stroke="rgba(255,255,255,0.10)"/>
<circle cx="48" cy="42" r="4.5" fill="#ff5f57"/><circle cx="64" cy="42" r="4.5" fill="#febc2e"/><circle cx="80" cy="42" r="4.5" fill="#28c840"/>
<rect x="100" y="35" width="410" height="14" rx="7" fill="rgba(255,255,255,.07)"/>
<g clip-path="url(#clip)"><rect x="46" y="78" width="468" height="40" rx="10" fill="rgba(255,255,255,.06)" stroke="rgba(255,255,255,0.10)"/><circle cx="72" cy="98" r="9" fill="none" stroke="#ffb020" stroke-width="2.5"/><line x1="79" y1="105" x2="86" y2="112" stroke="#ffb020" stroke-width="2.5" stroke-linecap="round"/><rect x="100" y="93" width="210" height="11" rx="4" fill="rgba(255,255,255,.20)"/><rect x="46" y="138" width="468" height="46" rx="9" fill="rgba(139,123,255,.14)" stroke="#8b7bff"/><rect x="64" y="149" width="250" height="10" rx="4" fill="#ffb020"/><rect x="64" y="165" width="380" height="7" rx="4" fill="rgba(255,255,255,.13)"/><rect x="46" y="194" width="468" height="46" rx="9" fill="rgba(255,255,255,.035)" stroke="rgba(255,255,255,0.10)"/><rect x="64" y="205" width="224" height="10" rx="4" fill="rgba(255,255,255,.22)"/><rect x="64" y="221" width="346" height="7" rx="4" fill="rgba(255,255,255,.13)"/><rect x="46" y="250" width="468" height="46" rx="9" fill="rgba(255,255,255,.035)" stroke="rgba(255,255,255,0.10)"/><rect x="64" y="261" width="198" height="10" rx="4" fill="rgba(255,255,255,.22)"/><rect x="64" y="277" width="312" height="7" rx="4" fill="rgba(255,255,255,.13)"/><rect x="46" y="306" width="468" height="46" rx="9" fill="rgba(255,255,255,.035)" stroke="rgba(255,255,255,0.10)"/><rect x="64" y="317" width="172" height="10" rx="4" fill="rgba(255,255,255,.22)"/><rect x="64" y="333" width="278" height="7" rx="4" fill="rgba(255,255,255,.13)"/></g>
</svg>
